HIERARCHY
ROOT Hips
{
	OFFSET 57.128101 -33.899815 96.911789
	CHANNELS 6 Xposition Yposition Zposition Xrotation Yrotation Zrotation
	JOINT spine
	{
		OFFSET 0.000000 -0.458069 7.965683
		CHANNELS 3 Xrotation Yrotation Zrotation
		JOINT spine1
		{
			OFFSET 0.000000 -0.000004 10.243103
			CHANNELS 3 Xrotation Yrotation Zrotation
			JOINT spine2
			{
				OFFSET 0.000000 0.000000 9.814751
				CHANNELS 3 Xrotation Yrotation Zrotation
				JOINT Neck
				{
					OFFSET 0.000000 -1.201385 25.198616
					CHANNELS 3 Xrotation Yrotation Zrotation
					JOINT Head
					{
						OFFSET 0.000000 -0.000004 7.613144
						CHANNELS 3 Xrotation Yrotation Zrotation
						End Site
						{
							OFFSET 0.000000 6.077328 18.428101
						}
					}
				}
				JOINT RightShoulder
				{
					OFFSET -4.132702 0.575447 10.599205
					CHANNELS 3 Xrotation Yrotation Zrotation
					JOINT RightArm
					{
						OFFSET 0.000000 0.000000 13.901794
						CHANNELS 3 Xrotation Yrotation Zrotation
						JOINT RightArmRoll
						{
							OFFSET 0.000000 -0.000004 7.017883
							CHANNELS 3 Xrotation Yrotation Zrotation
							JOINT RightForeArm
							{
								OFFSET 0.000000 -0.000004 20.440598
								CHANNELS 3 Xrotation Yrotation Zrotation
								JOINT RightForeArmRoll
								{
									OFFSET 0.000000 0.000000 7.875153
									CHANNELS 3 Xrotation Yrotation Zrotation
									JOINT RightHand
									{
										OFFSET 0.000000 -0.000004 15.803696
										CHANNELS 3 Xrotation Yrotation Zrotation
										End Site
										{
											OFFSET 0.000000 0.000000 0.100006
										}
									}
								}
							}
						}
					}
				}
				JOINT LeftShoulder
				{
					OFFSET 4.132702 0.575447 10.599205
					CHANNELS 3 Xrotation Yrotation Zrotation
					JOINT LeftArm
					{
						OFFSET 0.000000 0.000000 13.901794
						CHANNELS 3 Xrotation Yrotation Zrotation
						JOINT LeftArmRoll
						{
							OFFSET 0.000000 -0.000004 7.017883
							CHANNELS 3 Xrotation Yrotation Zrotation
							JOINT LeftForeArm
							{
								OFFSET 0.000000 -0.000004 20.440598
								CHANNELS 3 Xrotation Yrotation Zrotation
								JOINT LeftForeArmRoll
								{
									OFFSET 0.000000 0.000000 7.875153
									CHANNELS 3 Xrotation Yrotation Zrotation
									JOINT LeftHand
									{
										OFFSET 0.000000 -0.000004 15.803696
										CHANNELS 3 Xrotation Yrotation Zrotation
										End Site
										{
											OFFSET 0.000000 0.000000 0.100006
										}
									}
								}
							}
						}
					}
				}
			}
		}
	}
	JOINT RightUpLeg
	{
		OFFSET -7.060482 1.086102 -1.294701
		CHANNELS 3 Xrotation Yrotation Zrotation
		JOINT RightUpLegRoll
		{
			OFFSET 0.000000 -0.000004 18.530800
			CHANNELS 3 Xrotation Yrotation Zrotation
			JOINT RightLeg
			{
				OFFSET 0.000000 0.000004 -22.947601
				CHANNELS 3 Xrotation Yrotation Zrotation
				JOINT RightLegRoll
				{
					OFFSET 0.000000 -0.000004 23.022598
					CHANNELS 3 Xrotation Yrotation Zrotation
					JOINT RightFoot
					{
						OFFSET 0.000000 -0.000004 19.162506
						CHANNELS 3 Xrotation Yrotation Zrotation
						JOINT RightToeBase
						{
							OFFSET 0.000000 0.000000 16.018799
							CHANNELS 3 Xrotation Yrotation Zrotation
							End Site
							{
								OFFSET 0.006790 0.894205 7.757828
							}
						}
					}
				}
			}
		}
	}
	JOINT LeftUpLeg
	{
		OFFSET 7.060482 1.086102 -1.294701
		CHANNELS 3 Xrotation Yrotation Zrotation
		JOINT LeftUpLegRoll
		{
			OFFSET 0.000000 -0.000004 18.530899
			CHANNELS 3 Xrotation Yrotation Zrotation
			JOINT LeftLeg
			{
				OFFSET 0.000000 -0.000004 22.947502
				CHANNELS 3 Xrotation Yrotation Zrotation
				JOINT LeftLegRoll
				{
					OFFSET 0.000000 -0.000004 23.235504
					CHANNELS 3 Xrotation Yrotation Zrotation
					JOINT LeftFoot
					{
						OFFSET 0.000000 -0.000004 18.949600
						CHANNELS 3 Xrotation Yrotation Zrotation
						JOINT LeftToeBase
						{
							OFFSET 0.000000 0.000000 16.018799
							CHANNELS 3 Xrotation Yrotation Zrotation
							End Site
							{
								OFFSET -0.030426 0.894203 7.757828
							}
						}
					}
				}
			}
		}
	}
}
MOTION
Frames: 6
Frame Time: 0.041667
56.745899 -34.063614 96.949089 -2.897073 -0.048609 0.522127 -1.036919 0.613977 -0.195931 1.931130 1.237977 -0.385308 3.576350 1.233254 -0.400108 12.431221 -25.497629 6.978852 2.742039 11.758101 6.794837 -14.811272 -22.126591 -16.195647 -144.737938 -177.724691 -91.132127 -0.000000 0.000000 0.000001 86.918440 -0.094297 3.860159 -0.000010 0.000008 -3.008290 -5.000243 -8.000019 0.000016 -3.445889 62.212559 4.406011 -58.490243 108.249448 53.640310 -0.000001 -0.000008 0.000000 16.458454 9.738304 -0.595345 -0.000002 -0.000005 3.000001 -5.000204 7.998903 -0.000136 0.181598 -174.612024 4.287000 -179.999991 0.000005 -1.139994 174.991332 -2.390846 -0.460479 -0.000006 0.000002 0.059583 69.048308 6.931330 2.019536 25.456952 -7.355615 0.000000 2.871602 173.649923 -3.009060 -0.000020 -0.000005 -1.190280 -6.386042 2.435433 0.262687 -0.000007 0.000001 -0.097754 69.445498 -6.925761 -2.011264 25.456952 7.355614 0.000001 
56.739502 -34.064114 96.948097 -2.897940 -0.030281 0.533268 -1.034721 0.615098 -0.195575 1.935544 1.240582 -0.384822 3.580765 1.235864 -0.399652 12.268627 -25.415851 6.921032 2.812967 11.602979 6.782945 -14.795274 -22.170536 -16.173412 -144.699962 -177.633112 -91.143533 0.000002 -0.000000 0.000001 86.927169 -0.098282 3.856542 -0.000010 0.000007 -3.008292 -5.000246 -8.000022 0.000019 -3.549089 62.270425 4.531021 -58.619088 108.267466 53.795769 -0.000001 -0.000008 0.000001 16.453185 9.762599 -0.599133 -0.000004 -0.000005 3.000001 -5.000203 7.998903 -0.000136 0.198695 -174.639031 4.273273 -179.999991 0.000005 -1.141005 175.018147 -2.387950 -0.459101 -0.000006 0.000002 0.059152 69.038220 6.931496 2.019498 25.456948 -7.355615 -0.000001 2.856885 173.623887 -3.022550 -0.000020 -0.000004 -1.190149 -6.408434 2.433418 0.263493 -0.000006 0.000001 -0.098520 69.453489 -6.925613 -2.011238 25.456948 7.355613 0.000000 
56.735500 -34.050217 96.943802 -2.898880 -0.012865 0.544978 -1.032510 0.616153 -0.195131 1.939967 1.242987 -0.384204 3.585188 1.238283 -0.399063 12.105253 -25.328066 6.861208 2.884463 11.444366 6.769312 -14.779553 -22.215052 -16.151794 -144.665060 -177.537435 -91.150350 0.000001 0.000000 0.000000 86.930973 -0.101317 3.853407 -0.000011 0.000008 -3.008281 -5.000247 -8.000022 0.000019 -3.649259 62.328905 4.652551 -58.745426 108.285908 53.947815 -0.000000 -0.000008 0.000000 16.446664 9.786189 -0.602719 -0.000002 -0.000005 3.000001 -5.000206 7.998905 -0.000136 0.215280 -174.665040 4.260495 -179.999991 0.000005 -1.141006 175.043624 -2.386055 -0.457866 -0.000006 0.000002 0.058752 69.028678 6.931725 2.019339 25.456952 -7.355613 -0.000000 2.842742 173.599831 -3.034992 -0.000020 -0.000003 -1.190020 -6.429843 2.431258 0.264290 -0.000006 0.000001 -0.099239 69.461077 -6.925512 -2.011044 25.456953 7.355610 0.000000 
56.721600 -34.053314 96.945290 -2.899891 0.003551 0.557356 -1.030308 0.617146 -0.194584 1.944370 1.245173 -0.383417 3.589582 1.240482 -0.398304 11.941116 -25.234177 6.798982 2.956224 11.282150 6.753608 -14.764188 -22.259831 -16.130759 -144.633736 -177.438110 -91.148977 -0.000003 0.000001 0.000001 86.930037 -0.103329 3.851491 -0.000010 0.000007 -3.008281 -5.000241 -8.000020 0.000016 -3.745804 62.388007 4.769890 -58.868560 108.304780 54.095665 -0.000001 -0.000007 0.000000 16.438577 9.808993 -0.606073 -0.000001 -0.000005 3.000001 -5.000204 7.998903 -0.000136 0.231212 -174.688044 4.248754 -179.999991 0.000005 -1.141005 175.067502 -2.383147 -0.456615 -0.000006 0.000002 0.058383 69.020086 6.931933 2.019214 25.456948 -7.355614 -0.000000 2.829227 173.577769 -3.046285 -0.000020 -0.000004 -1.189900 -6.450140 2.428926 0.265082 -0.000007 0.000000 -0.099897 69.468119 -6.925352 -2.011076 25.456952 7.355613 0.000000 
56.730900 -34.063217 96.949890 -2.900949 0.018875 0.570496 -1.028131 0.618079 -0.193916 1.948723 1.247148 -0.382425 3.593946 1.242473 -0.397337 11.776651 -25.133735 6.734097 3.027960 11.116149 6.735490 -14.749141 -22.304589 -16.110220 -144.606375 -177.335671 -91.136095 0.000001 0.000002 0.000001 86.924963 -0.104229 3.851542 -0.000010 0.000008 -3.008281 -5.000247 -8.000020 0.000016 -3.838063 62.447586 4.882272 -58.987850 108.324102 54.238583 -0.000001 -0.000007 -0.000000 16.428717 9.830829 -0.609119 -0.000003 -0.000005 3.000001 -5.000203 7.998903 -0.000136 0.246360 -174.710051 4.238122 -179.999991 0.000005 -1.141006 175.089468 -2.381238 -0.455530 -0.000006 0.000002 0.058049 69.012436 6.932119 2.019128 25.456947 -7.355616 0.000000 2.816414 173.556732 -3.056376 -0.000020 -0.000004 -1.189769 -6.469235 2.426400 0.265872 -0.000006 0.000001 -0.100486 69.474546 -6.925271 -2.010858 25.456955 7.355613 -0.000000 
56.699905 -34.055820 96.947502 -2.902059 0.033018 0.584498 -1.025978 0.618953 -0.193110 1.953014 1.248884 -0.381187 3.598241 1.244233 -0.396123 11.612104 -25.026619 6.666247 3.099383 10.946252 6.714579 -14.734506 -22.349113 -16.090363 -144.583289 -177.230555 -91.108317 0.000001 0.000003 0.000001 86.916049 -0.103958 3.854293 -0.000007 0.000009 -3.008280 -5.000243 -8.000020 0.000018 -3.925425 62.507637 4.988969 -59.102877 108.344067 54.376065 0.000000 -0.000008 0.000000 16.416776 9.851616 -0.611828 -0.000003 -0.000005 3.000000 -5.000201 7.998904 -0.000136 0.260586 -174.730050 4.228703 -179.999991 0.000005 -1.141005 175.109303 -2.380315 -0.454621 -0.000006 0.000002 0.057753 69.005954 6.932331 2.018875 25.456952 -7.355613 -0.000000 2.804342 173.537676 -3.065125 -0.000020 -0.000004 -1.189640 -6.486988 2.423651 0.266663 -0.000007 0.000001 -0.100993 69.480332 -6.925161 -2.010680 25.456953 7.355612 0.000001 
